<?xml version="1.0" encoding="UTF-8"?>
<svg xmlns="http://www.w3.org/2000/svg" xmlns:xlink="http://www.w3.org/1999/xlink" width="50pt" height="50pt" viewBox="0 0 50 50" version="1.1">
<g id="surface1">
<path style=" stroke:none;fill-rule:nonzero;fill:rgb(0%,58.823529%,53.333333%);fill-opacity:1;" d="M 47.507812 24.230469 L 23.59375 0.316406 C 23.390625 0.113281 23.113281 0 22.824219 0 L 3.261719 0 C 2.660156 0 2.171875 0.484375 2.171875 1.085938 C 2.171875 1.375 2.285156 1.652344 2.492188 1.855469 L 25.636719 25 L 2.492188 48.144531 C 2.066406 48.566406 2.066406 49.253906 2.488281 49.679688 C 2.695312 49.886719 2.972656 50 3.261719 50 L 22.824219 50 C 23.113281 50 23.390625 49.886719 23.59375 49.683594 L 47.507812 25.769531 C 47.933594 25.34375 47.933594 24.65625 47.511719 24.230469 C 47.511719 24.230469 47.507812 24.230469 47.507812 24.230469 Z M 47.507812 24.230469 "/>
</g>
</svg>
